<mxfile host="app.diagrams.net" agent="Mozilla/5.0 (Windows NT 10.0; Win64; x64) AppleWebKit/537.36 (KHTML, like Gecko) Chrome/132.0.0.0 Safari/537.36" version="26.0.10">
  <diagram name="Page-1" id="THb3cmExTD_7dPHo7dHJ">
    <mxGraphModel dx="1615" dy="869" grid="1" gridSize="10" guides="1" tooltips="1" connect="1" arrows="1" fold="1" page="1" pageScale="1" pageWidth="827" pageHeight="1169" math="0" shadow="0">
      <root>
        <mxCell id="0" />
        <mxCell id="1" parent="0" />
        <mxCell id="ZJcdahX9ngetlyimFhv9-3" value="" style="rounded=1;whiteSpace=wrap;html=1;rotation=90;fillColor=#ffe6cc;strokeColor=#d79b00;" vertex="1" parent="1">
          <mxGeometry x="130" y="336" width="540" height="300" as="geometry" />
        </mxCell>
        <mxCell id="ZJcdahX9ngetlyimFhv9-4" value="" style="endArrow=none;dashed=1;html=1;rounded=0;" edge="1" parent="1">
          <mxGeometry width="50" height="50" relative="1" as="geometry">
            <mxPoint x="399.23" y="796" as="sourcePoint" />
            <mxPoint x="399.23" y="176" as="targetPoint" />
          </mxGeometry>
        </mxCell>
        <mxCell id="ZJcdahX9ngetlyimFhv9-5" value="" style="image;html=1;image=img/lib/clip_art/networking/Firewall_02_128x128.png" vertex="1" parent="1">
          <mxGeometry x="260" y="230" width="60" height="50" as="geometry" />
        </mxCell>
        <mxCell id="ZJcdahX9ngetlyimFhv9-6" value="" style="image;html=1;image=img/lib/clip_art/networking/Firewall_02_128x128.png" vertex="1" parent="1">
          <mxGeometry x="480" y="230" width="60" height="50" as="geometry" />
        </mxCell>
        <mxCell id="ZJcdahX9ngetlyimFhv9-11" value="" style="sketch=0;pointerEvents=1;shadow=0;dashed=0;html=1;strokeColor=none;fillColor=#005F4B;labelPosition=center;verticalLabelPosition=bottom;verticalAlign=top;align=center;outlineConnect=0;shape=mxgraph.veeam2.hyper_v_host;" vertex="1" parent="1">
          <mxGeometry x="260" y="330" width="60" height="59" as="geometry" />
        </mxCell>
        <mxCell id="ZJcdahX9ngetlyimFhv9-12" value="" style="sketch=0;pointerEvents=1;shadow=0;dashed=0;html=1;strokeColor=none;fillColor=#005F4B;labelPosition=center;verticalLabelPosition=bottom;verticalAlign=top;align=center;outlineConnect=0;shape=mxgraph.veeam2.hyper_v_host;" vertex="1" parent="1">
          <mxGeometry x="260" y="430" width="60" height="59" as="geometry" />
        </mxCell>
        <mxCell id="ZJcdahX9ngetlyimFhv9-13" value="" style="sketch=0;pointerEvents=1;shadow=0;dashed=0;html=1;strokeColor=none;fillColor=#005F4B;labelPosition=center;verticalLabelPosition=bottom;verticalAlign=top;align=center;outlineConnect=0;shape=mxgraph.veeam2.hyper_v_host;" vertex="1" parent="1">
          <mxGeometry x="260" y="540" width="60" height="59" as="geometry" />
        </mxCell>
        <mxCell id="ZJcdahX9ngetlyimFhv9-14" value="" style="sketch=0;pointerEvents=1;shadow=0;dashed=0;html=1;strokeColor=none;fillColor=#005F4B;labelPosition=center;verticalLabelPosition=bottom;verticalAlign=top;align=center;outlineConnect=0;shape=mxgraph.veeam2.hyper_v_host;" vertex="1" parent="1">
          <mxGeometry x="260" y="650" width="60" height="59" as="geometry" />
        </mxCell>
        <mxCell id="ZJcdahX9ngetlyimFhv9-15" value="" style="sketch=0;pointerEvents=1;shadow=0;dashed=0;html=1;strokeColor=none;fillColor=#005F4B;labelPosition=center;verticalLabelPosition=bottom;verticalAlign=top;align=center;outlineConnect=0;shape=mxgraph.veeam2.hyper_v_host;" vertex="1" parent="1">
          <mxGeometry x="480" y="330" width="60" height="59" as="geometry" />
        </mxCell>
        <mxCell id="ZJcdahX9ngetlyimFhv9-16" value="" style="sketch=0;pointerEvents=1;shadow=0;dashed=0;html=1;strokeColor=none;fillColor=#005F4B;labelPosition=center;verticalLabelPosition=bottom;verticalAlign=top;align=center;outlineConnect=0;shape=mxgraph.veeam2.hyper_v_host;" vertex="1" parent="1">
          <mxGeometry x="480" y="430" width="60" height="59" as="geometry" />
        </mxCell>
        <mxCell id="ZJcdahX9ngetlyimFhv9-17" value="" style="sketch=0;pointerEvents=1;shadow=0;dashed=0;html=1;strokeColor=none;fillColor=#005F4B;labelPosition=center;verticalLabelPosition=bottom;verticalAlign=top;align=center;outlineConnect=0;shape=mxgraph.veeam2.hyper_v_host;" vertex="1" parent="1">
          <mxGeometry x="480" y="540" width="60" height="59" as="geometry" />
        </mxCell>
        <mxCell id="ZJcdahX9ngetlyimFhv9-18" value="" style="sketch=0;pointerEvents=1;shadow=0;dashed=0;html=1;strokeColor=none;fillColor=#005F4B;labelPosition=center;verticalLabelPosition=bottom;verticalAlign=top;align=center;outlineConnect=0;shape=mxgraph.veeam2.hyper_v_host;" vertex="1" parent="1">
          <mxGeometry x="480" y="650" width="60" height="59" as="geometry" />
        </mxCell>
        <mxCell id="ZJcdahX9ngetlyimFhv9-19" value="nuc00" style="text;html=1;align=center;verticalAlign=middle;resizable=0;points=[];autosize=1;strokeColor=none;fillColor=none;" vertex="1" parent="1">
          <mxGeometry x="260" y="709" width="60" height="30" as="geometry" />
        </mxCell>
        <mxCell id="ZJcdahX9ngetlyimFhv9-20" value="nuc01" style="text;html=1;align=center;verticalAlign=middle;resizable=0;points=[];autosize=1;strokeColor=none;fillColor=none;" vertex="1" parent="1">
          <mxGeometry x="260" y="599" width="60" height="30" as="geometry" />
        </mxCell>
        <mxCell id="ZJcdahX9ngetlyimFhv9-21" value="nuc02" style="text;html=1;align=center;verticalAlign=middle;resizable=0;points=[];autosize=1;strokeColor=none;fillColor=none;" vertex="1" parent="1">
          <mxGeometry x="260" y="489" width="60" height="30" as="geometry" />
        </mxCell>
        <mxCell id="ZJcdahX9ngetlyimFhv9-22" value="nuc03" style="text;html=1;align=center;verticalAlign=middle;resizable=0;points=[];autosize=1;strokeColor=none;fillColor=none;" vertex="1" parent="1">
          <mxGeometry x="260" y="389" width="60" height="30" as="geometry" />
        </mxCell>
        <mxCell id="ZJcdahX9ngetlyimFhv9-23" value="nuc04" style="text;html=1;align=center;verticalAlign=middle;resizable=0;points=[];autosize=1;strokeColor=none;fillColor=none;" vertex="1" parent="1">
          <mxGeometry x="260" y="280" width="60" height="30" as="geometry" />
        </mxCell>
        <mxCell id="ZJcdahX9ngetlyimFhv9-24" value="nuc05" style="text;html=1;align=center;verticalAlign=middle;resizable=0;points=[];autosize=1;strokeColor=none;fillColor=none;" vertex="1" parent="1">
          <mxGeometry x="480" y="280" width="60" height="30" as="geometry" />
        </mxCell>
        <mxCell id="ZJcdahX9ngetlyimFhv9-25" value="nuc06" style="text;html=1;align=center;verticalAlign=middle;resizable=0;points=[];autosize=1;strokeColor=none;fillColor=none;" vertex="1" parent="1">
          <mxGeometry x="480" y="389" width="60" height="30" as="geometry" />
        </mxCell>
        <mxCell id="ZJcdahX9ngetlyimFhv9-26" value="nuc07" style="text;html=1;align=center;verticalAlign=middle;resizable=0;points=[];autosize=1;strokeColor=none;fillColor=none;" vertex="1" parent="1">
          <mxGeometry x="480" y="489" width="60" height="30" as="geometry" />
        </mxCell>
        <mxCell id="ZJcdahX9ngetlyimFhv9-27" value="nuc08" style="text;html=1;align=center;verticalAlign=middle;resizable=0;points=[];autosize=1;strokeColor=none;fillColor=none;" vertex="1" parent="1">
          <mxGeometry x="480" y="599" width="60" height="30" as="geometry" />
        </mxCell>
        <mxCell id="ZJcdahX9ngetlyimFhv9-28" value="nuc09" style="text;html=1;align=center;verticalAlign=middle;resizable=0;points=[];autosize=1;strokeColor=none;fillColor=none;" vertex="1" parent="1">
          <mxGeometry x="480" y="709" width="60" height="30" as="geometry" />
        </mxCell>
        <mxCell id="ZJcdahX9ngetlyimFhv9-29" value="&lt;font style=&quot;font-size: 72px;&quot;&gt;VMWare&lt;/font&gt;" style="text;html=1;align=center;verticalAlign=middle;resizable=0;points=[];autosize=1;strokeColor=none;fillColor=none;" vertex="1" parent="1">
          <mxGeometry x="40" y="70" width="300" height="100" as="geometry" />
        </mxCell>
        <mxCell id="ZJcdahX9ngetlyimFhv9-30" value="&lt;font style=&quot;font-size: 72px;&quot;&gt;Proxmox&lt;/font&gt;" style="text;html=1;align=center;verticalAlign=middle;resizable=0;points=[];autosize=1;strokeColor=none;fillColor=none;" vertex="1" parent="1">
          <mxGeometry x="460" y="70" width="310" height="100" as="geometry" />
        </mxCell>
      </root>
    </mxGraphModel>
  </diagram>
</mxfile>
